<svg width="100" height="100" viewBox="0 0 64 64" xmlns="http://www.w3.org/2000/svg">
    <!-- Outer Circle Background -->
    <circle cx="32" cy="32" r="30" fill="#FFAA00" stroke="#333333" stroke-width="2"/>

    <!-- Phone Icon -->
    <path d="M24 40c1 2 3 3 5 4 1 1 3 1 4-1l1-1c1-1 1-1 1-2l-3-3c-1 0-2 0-3 0l-2 1c-1 0-1 0-2-1-1-1-1-1-1-2l1-2c1-1 0-2 0-3l-3-3c-1-1-1-1-2 0l-1 1c-1 1-1 2-1 4s1 3 3 5z" fill="#FFFFFF"/>

    <!-- Envelope Icon -->
    <path d="M44 27H20c-1 0-1 1-1 1v10c0 1 1 1 1 1h24c1 0 1-1 1-1V28c0-1-1-1-1-1zm-2 2l-10 5-10-5h20zm1 7H21V29l11 5 11-5v7z" fill="#FFFFFF"/>

    <!-- Title for Accessibility -->
    <title>Contact Icon</title>
</svg>
